<svg width="13" height="8" fill="none" xmlns="http://www.w3.org/2000/svg"><path d="M1.677 2.225l.781.624-.78-.624zM2.802 2.1l-.625.78.625-.78zm-1 1.25l-.624.78.624-.78zm2 1.6l.625-.782-.625.781zM5.79 6.54l.64-.768a1.022 1.022 0 00-.015-.014l-.625.781zm.169.107l.43-.903h-.002l-.428.903zm.687 0l-.43-.903.43.903zm.168-.108l-.625-.78-.016.013.641.767zm1.988-1.59l-.625-.78.625.78zm2-1.6l-.625-.78.625.78zm.125-1.124l-.781.624.78-.624zM9.802 2.1l.625.78-.625-.78zm-2 1.6l.625.78-.625-.78zm-1.5 1.2l-.625.78a1 1 0 001.25 0l-.625-.78zm-1.5-1.2l.624-.781-.624.78zm-2.344-.85a.2.2 0 01-.281.03l1.25-1.561a1.8 1.8 0 00-2.53.281l1.561 1.25zm-.031-.282a.2.2 0 01.031.281L.896 1.6a1.8 1.8 0 00.282 2.53l1.249-1.562zm2 1.6l-2-1.6-1.25 1.562 2 1.6 1.25-1.562zm1.988 1.59l-1.988-1.59-1.25 1.562 1.988 1.59 1.25-1.562zm-.028-.014c.015.007.03.016.044.028L5.149 7.307c.118.099.247.18.382.244l.856-1.807zm-.17 0a.198.198 0 01.171 0L5.53 7.551a1.802 1.802 0 001.545 0l-.858-1.807zm-.044.028a.206.206 0 01.044-.028l.858 1.806c.135-.064.262-.145.38-.243L6.173 5.772zm2.004-1.604l-1.988 1.59L7.44 7.32l1.987-1.59-1.249-1.562zm2-1.6l-2 1.6 1.25 1.562 2-1.6-1.25-1.562zm-.031.281a.2.2 0 01.031-.28l1.25 1.561a1.8 1.8 0 00.28-2.53l-1.561 1.25zm.28.032a.2.2 0 01-.28-.032L11.707 1.6a1.8 1.8 0 00-2.53-.281l1.25 1.562zm-2 1.6l2-1.6-1.248-1.562-2 1.6L8.427 4.48zm-1.5 1.2l1.5-1.2-1.248-1.562-1.5 1.2 1.249 1.562zm-2.749-1.2l1.5 1.2 1.25-1.562-1.5-1.2-1.25 1.562zm-2-1.6l2 1.6 1.25-1.562-2-1.6-1.25 1.562z" fill="#D8D8D8"/></svg>