<svg width="26" height="30" fill="none" xmlns="http://www.w3.org/2000/svg"><path clip-rule="evenodd" d="M14.042 10.875a6.646 6.646 0 10-8.459 6.389v1.465l-1.208 1.209 1.208 1.208v1.208l-1.208 1.209 1.208 1.208v1.812l1.813 1.813 1.812-1.813v-9.32a6.646 6.646 0 004.834-6.388z" stroke="#53C7CD" stroke-width="1.5" stroke-linecap="round" stroke-linejoin="round"/><path clip-rule="evenodd" d="M7.396 11.477a2.417 2.417 0 100-4.834 2.417 2.417 0 000 4.834z" stroke="#53C7CD" stroke-width="1.5" stroke-linecap="round" stroke-linejoin="round"/><path d="M9.208 18.14a6.654 6.654 0 006.555.04l1.3 1.153v1.813h1.812l.604.634v1.782h1.591l1.284 1.209h2.562v-2.563l-6.59-6.59A6.646 6.646 0 0011.68 5.79" stroke="#53C7CD" stroke-width="1.5" stroke-linecap="round" stroke-linejoin="round"/><path d="M7.396 8.458V3.021a2.417 2.417 0 114.833 0v2.722" stroke="#53C7CD" stroke-width="1.5" stroke-linecap="round" stroke-linejoin="round"/></svg>