<svg width="26" height="29" fill="none" xmlns="http://www.w3.org/2000/svg"><path clip-rule="evenodd" d="M14.043 10.875a6.646 6.646 0 10-8.459 6.389v1.465l-1.208 1.209 1.208 1.208v1.208l-1.208 1.209 1.208 1.208v1.812l1.813 1.813 1.812-1.813v-9.32a6.646 6.646 0 004.834-6.388z" stroke="#9B9B9B" stroke-linecap="round" stroke-linejoin="round"/><path clip-rule="evenodd" d="M7.397 11.477a2.417 2.417 0 100-4.834 2.417 2.417 0 000 4.834z" stroke="#9B9B9B" stroke-linecap="round" stroke-linejoin="round"/><path d="M9.209 18.14a6.655 6.655 0 006.555.04l1.3 1.153v1.813h1.812l.604.634v1.782h1.591l1.283 1.209h2.563v-2.563l-6.59-6.59a6.646 6.646 0 00-6.646-9.828" stroke="#9B9B9B" stroke-linecap="round" stroke-linejoin="round"/><path d="M7.396 8.458V3.021a2.417 2.417 0 014.834 0v2.722" stroke="#9B9B9B" stroke-linecap="round" stroke-linejoin="round"/></svg>