<svg width="30" height="29" fill="none" xmlns="http://www.w3.org/2000/svg"><path clip-rule="evenodd" d="M23.995 7.055a2.08 2.08 0 00-4.158 0v1.906a.52.52 0 01-.52.52h5.198a.52.52 0 01-.52-.52V7.055z" stroke="#9B9B9B" stroke-linecap="round" stroke-linejoin="round"/><path d="M22.406 10.31a.52.52 0 01-.98 0m.317-6.027v.694" stroke="#9B9B9B" stroke-linecap="round" stroke-linejoin="round"/><path clip-rule="evenodd" d="M21.898.604a7.194 7.194 0 00-7.17 7.331 7.184 7.184 0 00.944 3.858l-2.152 4.52 4.52-2.154A7.327 7.327 0 1021.899.604v0z" stroke="#9B9B9B" stroke-linecap="round" stroke-linejoin="round"/><path d="M20.77 17.522v10.875m-19.332-.001V6.646a2.417 2.417 0 012.416-2.417h9.063m-.604 4.835H1.437" stroke="#9B9B9B" stroke-linecap="round" stroke-linejoin="round"/><path clip-rule="evenodd" d="M10.5 22.96a2.719 2.719 0 100-5.438 2.719 2.719 0 000 5.438z" stroke="#9B9B9B" stroke-linecap="round" stroke-linejoin="round"/><path d="M15.938 28.396a5.612 5.612 0 00-10.876 0m4.23-21.749h3.02" stroke="#9B9B9B" stroke-linecap="round" stroke-linejoin="round"/></svg>