<svg width="135" height="31" fill="none" xmlns="http://www.w3.org/2000/svg"><rect x="3.932" y="11.338" width="2.511" height="19.175" rx=".22" fill="#ABD856"/><rect x="5.986" y="5.403" width="2.968" height="4.109" rx=".22" fill="#ABD856"/><path fill-rule="evenodd" clip-rule="evenodd" d="M18.728.13a.22.22 0 00-.308.048l-1.217 1.675a.22.22 0 00.049.308l10.59 7.694a.22.22 0 00.349-.178l.002-2.559a.22.22 0 00-.09-.178L18.727.13z" fill="#ABD856"/><path fill-rule="evenodd" clip-rule="evenodd" d="M18.42.13a.22.22 0 01.308.048l1.217 1.675a.22.22 0 01-.048.308L2.154 15.05a.22.22 0 01-.307-.048L.629 13.327a.22.22 0 01.049-.307L18.421.13z" fill="#ABD856"/><path fill-rule="evenodd" clip-rule="evenodd" d="M24.632 25.182c0-.854-.157-1.613-.47-2.277-.315-.665-.757-1.18-1.329-1.549-.571-.368-1.23-.569-1.975-.603v2.567c.608.02 1.052.187 1.332.5.28.315.419.768.419 1.362 0 .701-.245 1.195-.736 1.482-.49.287-1.307.43-2.45.43h-.757c-1.055-.014-1.822-.171-2.303-.47-.48-.3-.72-.77-.72-1.413 0-.633.141-1.103.426-1.412.284-.31.753-.474 1.405-.493V20.73c-1.202.108-2.145.557-2.829 1.346-.684.79-1.026 1.834-1.026 3.134 0 .902.215 1.697.644 2.384.429.686 1.037 1.212 1.824 1.578.787.365 1.706.548 2.755.548h.53c1.672 0 2.967-.405 3.884-1.214.917-.81 1.376-1.918 1.376-3.325zm0-10.05c0-.912-.217-1.724-.651-2.438-.434-.714-1.053-1.264-1.858-1.652-.804-.387-1.728-.58-2.773-.58h-.493c-1.03.004-1.943.204-2.74.599-.797.395-1.412.947-1.843 1.659-.432.71-.647 1.52-.647 2.427 0 .917.218 1.735.654 2.454.437.718 1.056 1.27 1.858 1.655s1.727.577 2.777.577h.603c1.01-.02 1.905-.226 2.685-.621s1.38-.945 1.799-1.652c.42-.706.629-1.515.629-2.427zm-2.862 1.553c.564-.348.846-.866.846-1.552 0-.653-.277-1.155-.831-1.508-.554-.354-1.351-.533-2.39-.538H18.9c-1.064 0-1.872.178-2.424.534-.552.355-.827.864-.827 1.526 0 1.295.97 1.98 2.913 2.053l.787.007c1.05 0 1.856-.174 2.42-.522z" fill="#fff"/><path fill-rule="evenodd" clip-rule="evenodd" d="M24.632 25.182c0-.854-.157-1.613-.47-2.277-.315-.665-.757-1.18-1.329-1.549-.571-.368-1.23-.569-1.975-.603v2.567c.608.02 1.052.187 1.332.5.28.315.419.768.419 1.362 0 .701-.245 1.195-.736 1.482-.49.287-1.307.43-2.45.43h-.757c-1.055-.014-1.822-.171-2.303-.47-.48-.3-.72-.77-.72-1.413 0-.633.141-1.103.426-1.412.284-.31.753-.474 1.405-.493V20.73c-1.202.108-2.145.557-2.829 1.346-.684.79-1.026 1.834-1.026 3.134 0 .902.215 1.697.644 2.384.429.686 1.037 1.212 1.824 1.578.787.365 1.706.548 2.755.548h.53c1.672 0 2.967-.405 3.884-1.214.917-.81 1.376-1.918 1.376-3.325zm0-10.05c0-.912-.217-1.724-.651-2.438-.434-.714-1.053-1.264-1.858-1.652-.804-.387-1.728-.58-2.773-.58h-.493c-1.03.004-1.943.204-2.74.599-.797.395-1.412.947-1.843 1.659-.432.71-.647 1.52-.647 2.427 0 .917.218 1.735.654 2.454.437.718 1.056 1.27 1.858 1.655s1.727.577 2.777.577h.603c1.01-.02 1.905-.226 2.685-.621s1.38-.945 1.799-1.652c.42-.706.629-1.515.629-2.427zm-2.862 1.553c.564-.348.846-.866.846-1.552 0-.653-.277-1.155-.831-1.508-.554-.354-1.351-.533-2.39-.538H18.9c-1.064 0-1.872.178-2.424.534-.552.355-.827.864-.827 1.526 0 1.295.97 1.98 2.913 2.053l.787.007c1.05 0 1.856-.174 2.42-.522z" fill="#ABD856"/><path fill-rule="evenodd" clip-rule="evenodd" d="M44.945 28.168v2.357H31.69V8.162l2.897 2.102v17.904h10.36zm14.536-.48c-1.36 2.091-3.403 3.137-6.125 3.137-2.202 0-3.993-.723-5.375-2.17-1.38-1.445-2.072-3.38-2.072-5.802v-.51c0-1.612.308-3.05.924-4.317.615-1.266 1.476-2.256 2.582-2.972a6.493 6.493 0 013.596-1.074c2.112 0 3.753.696 4.924 2.087 1.171 1.392 1.757 3.383 1.757 5.976v1.155H48.687c.04 1.602.508 2.896 1.404 3.881.895.986 2.034 1.48 3.415 1.48.981 0 1.812-.2 2.492-.601.681-.4 1.277-.931 1.787-1.592l1.697 1.322zm-2.567-6.771h-8.137c.18-1.472.65-2.615 1.411-3.431.761-.816 1.702-1.224 2.823-1.224 1.16 0 2.082.388 2.762 1.164.68.776 1.061 1.87 1.141 3.28v.21zm14.447 7.896c-1.292 1.342-2.833 2.012-4.625 2.012-1.601 0-2.915-.453-3.94-1.358-1.026-.906-1.54-2.055-1.54-3.446 0-1.692.644-3.005 1.93-3.94 1.286-.937 3.095-1.405 5.427-1.405h2.703V19.4c0-.97-.29-1.744-.871-2.32-.58-.575-1.437-.863-2.568-.863-.99 0-1.821.25-2.492.751-.67.5-1.006 1.106-1.006 1.817h-2.792c0-.811.288-1.594.863-2.35.576-.756 1.356-1.354 2.342-1.794.986-.44 2.07-.66 3.25-.66 1.872 0 3.338.467 4.4 1.403 1.06.936 1.61 2.225 1.65 3.866v7.477c0 1.491.191 2.677.571 3.558v.24h-2.912c-.16-.32-.29-.89-.39-1.711zm-4.22-.405c-.91 0-1.656-.245-2.236-.736-.58-.49-.871-1.17-.871-2.041 0-1.992 1.701-2.988 5.104-2.988h2.177v3.333c-.35.72-.915 1.306-1.696 1.757-.78.45-1.606.675-2.477.675zm20.617 1.104c-1.16.875-2.667 1.313-4.518 1.313-1.302 0-2.453-.23-3.454-.69-1-.46-1.784-1.104-2.35-1.93-.565-.825-.847-1.718-.847-2.68h2.777c.05.931.423 1.67 1.119 2.215.695.546 1.614.818 2.755.818 1.05 0 1.894-.212 2.53-.638.635-.425.953-.993.953-1.704 0-.75-.283-1.334-.849-1.749-.565-.415-1.551-.773-2.957-1.073-1.407-.3-2.523-.66-3.348-1.081-.826-.42-1.437-.921-1.832-1.502-.395-.58-.593-1.27-.593-2.071 0-1.332.563-2.458 1.69-3.378 1.125-.921 2.564-1.382 4.315-1.382 1.842 0 3.336.476 4.482 1.427 1.146.95 1.719 2.167 1.719 3.648h-2.793c0-.76-.322-1.416-.968-1.967-.645-.55-1.459-.826-2.44-.826-1.01 0-1.801.22-2.372.661-.57.44-.855 1.016-.855 1.727 0 .67.265 1.176.795 1.516.53.34 1.49.665 2.875.976 1.386.31 2.51.68 3.37 1.11.861.431 1.5.95 1.915 1.555.415.605.623 1.343.623 2.214 0 1.451-.58 2.615-1.742 3.49zm10.919 1.313c2.722 0 4.764-1.046 6.125-3.137l-1.696-1.322a6.267 6.267 0 01-1.787 1.592c-.681.4-1.511.6-2.492.6-1.382 0-2.52-.493-3.416-1.479-.896-.985-1.364-2.279-1.404-3.88h11.005v-1.157c0-2.592-.585-4.584-1.756-5.975s-2.813-2.087-4.925-2.087c-1.29 0-2.49.358-3.595 1.074-1.106.716-1.967 1.706-2.583 2.972-.615 1.267-.923 2.705-.923 4.317v.51c0 2.422.69 4.357 2.072 5.803 1.381 1.446 3.173 2.17 5.375 2.17zm-4.58-9.909h8.138v-.21c-.08-1.41-.461-2.504-1.141-3.28-.681-.776-1.602-1.164-2.763-1.164-1.12 0-2.062.408-2.822 1.224-.76.816-1.231 1.96-1.411 3.43zm21.507-9.368c.54 0 .95-.15 1.231-.45.28-.3.42-.676.42-1.126 0-.45-.14-.83-.42-1.141-.281-.31-.691-.466-1.231-.466-.541 0-.949.156-1.224.466-.275.31-.413.69-.413 1.14 0 .451.138.827.413 1.127.275.3.683.45 1.224.45zm1.366 2.733v16.244h-2.778V14.281h2.778zm9.927 16.544c1.461 0 2.755-.35 3.881-1.05 1.126-.701 1.992-1.68 2.597-2.936.606-1.256.909-2.675.909-4.256v-.195c0-2.542-.684-4.58-2.05-6.11-1.366-1.532-3.155-2.298-5.367-2.298-1.431 0-2.705.346-3.821 1.036-1.116.69-1.987 1.672-2.612 2.943-.626 1.271-.939 2.702-.939 4.294v.195c0 2.522.684 4.549 2.05 6.08 1.366 1.532 3.15 2.297 5.352 2.297zm-3.355-3.903c.835 1.09 1.954 1.636 3.355 1.636 1.411 0 2.532-.553 3.363-1.659.831-1.106 1.246-2.655 1.246-4.646 0-1.782-.423-3.226-1.269-4.332-.845-1.106-1.969-1.659-3.37-1.659-1.371 0-2.477.546-3.318 1.637-.841 1.09-1.261 2.652-1.261 4.684 0 1.802.418 3.248 1.254 4.339z" fill="#fff"/><path fill-rule="evenodd" clip-rule="evenodd" d="M44.945 28.168v2.357H31.69V8.162l2.897 2.102v17.904h10.36zm14.536-.48c-1.36 2.091-3.403 3.137-6.125 3.137-2.202 0-3.993-.723-5.375-2.17-1.38-1.445-2.072-3.38-2.072-5.802v-.51c0-1.612.308-3.05.924-4.317.615-1.266 1.476-2.256 2.582-2.972a6.493 6.493 0 013.596-1.074c2.112 0 3.753.696 4.924 2.087 1.171 1.392 1.757 3.383 1.757 5.976v1.155H48.687c.04 1.602.508 2.896 1.404 3.881.895.986 2.034 1.48 3.415 1.48.981 0 1.812-.2 2.492-.601.681-.4 1.277-.931 1.787-1.592l1.697 1.322zm-2.567-6.771h-8.137c.18-1.472.65-2.615 1.411-3.431.761-.816 1.702-1.224 2.823-1.224 1.16 0 2.082.388 2.762 1.164.68.776 1.061 1.87 1.141 3.28v.21zm14.447 7.896c-1.292 1.342-2.833 2.012-4.625 2.012-1.601 0-2.915-.453-3.94-1.358-1.026-.906-1.54-2.055-1.54-3.446 0-1.692.644-3.005 1.93-3.94 1.286-.937 3.095-1.405 5.427-1.405h2.703V19.4c0-.97-.29-1.744-.871-2.32-.58-.575-1.437-.863-2.568-.863-.99 0-1.821.25-2.492.751-.67.5-1.006 1.106-1.006 1.817h-2.792c0-.811.288-1.594.863-2.35.576-.756 1.356-1.354 2.342-1.794.986-.44 2.07-.66 3.25-.66 1.872 0 3.338.467 4.4 1.403 1.06.936 1.61 2.225 1.65 3.866v7.477c0 1.491.191 2.677.571 3.558v.24h-2.912c-.16-.32-.29-.89-.39-1.711zm-4.22-.405c-.91 0-1.656-.245-2.236-.736-.58-.49-.871-1.17-.871-2.041 0-1.992 1.701-2.988 5.104-2.988h2.177v3.333c-.35.72-.915 1.306-1.696 1.757-.78.45-1.606.675-2.477.675zm20.617 1.104c-1.16.875-2.667 1.313-4.518 1.313-1.302 0-2.453-.23-3.454-.69-1-.46-1.784-1.104-2.35-1.93-.565-.825-.847-1.718-.847-2.68h2.777c.05.931.423 1.67 1.119 2.215.695.546 1.614.818 2.755.818 1.05 0 1.894-.212 2.53-.638.635-.425.953-.993.953-1.704 0-.75-.283-1.334-.849-1.749-.565-.415-1.551-.773-2.957-1.073-1.407-.3-2.523-.66-3.348-1.081-.826-.42-1.437-.921-1.832-1.502-.395-.58-.593-1.27-.593-2.071 0-1.332.563-2.458 1.69-3.378 1.125-.921 2.564-1.382 4.315-1.382 1.842 0 3.336.476 4.482 1.427 1.146.95 1.719 2.167 1.719 3.648h-2.793c0-.76-.322-1.416-.968-1.967-.645-.55-1.459-.826-2.44-.826-1.01 0-1.801.22-2.372.661-.57.44-.855 1.016-.855 1.727 0 .67.265 1.176.795 1.516.53.34 1.49.665 2.875.976 1.386.31 2.51.68 3.37 1.11.861.431 1.5.95 1.915 1.555.415.605.623 1.343.623 2.214 0 1.451-.58 2.615-1.742 3.49zm10.919 1.313c2.722 0 4.764-1.046 6.125-3.137l-1.696-1.322a6.267 6.267 0 01-1.787 1.592c-.681.4-1.511.6-2.492.6-1.382 0-2.52-.493-3.416-1.479-.896-.985-1.364-2.279-1.404-3.88h11.005v-1.157c0-2.592-.585-4.584-1.756-5.975s-2.813-2.087-4.925-2.087c-1.29 0-2.49.358-3.595 1.074-1.106.716-1.967 1.706-2.583 2.972-.615 1.267-.923 2.705-.923 4.317v.51c0 2.422.69 4.357 2.072 5.803 1.381 1.446 3.173 2.17 5.375 2.17zm-4.58-9.909h8.138v-.21c-.08-1.41-.461-2.504-1.141-3.28-.681-.776-1.602-1.164-2.763-1.164-1.12 0-2.062.408-2.822 1.224-.76.816-1.231 1.96-1.411 3.43zm21.507-9.368c.54 0 .95-.15 1.231-.45.28-.3.42-.676.42-1.126 0-.45-.14-.83-.42-1.141-.281-.31-.691-.466-1.231-.466-.541 0-.949.156-1.224.466-.275.31-.413.69-.413 1.14 0 .451.138.827.413 1.127.275.3.683.45 1.224.45zm1.366 2.733v16.244h-2.778V14.281h2.778zm9.927 16.544c1.461 0 2.755-.35 3.881-1.05 1.126-.701 1.992-1.68 2.597-2.936.606-1.256.909-2.675.909-4.256v-.195c0-2.542-.684-4.58-2.05-6.11-1.366-1.532-3.155-2.298-5.367-2.298-1.431 0-2.705.346-3.821 1.036-1.116.69-1.987 1.672-2.612 2.943-.626 1.271-.939 2.702-.939 4.294v.195c0 2.522.684 4.549 2.05 6.08 1.366 1.532 3.15 2.297 5.352 2.297zm-3.355-3.903c.835 1.09 1.954 1.636 3.355 1.636 1.411 0 2.532-.553 3.363-1.659.831-1.106 1.246-2.655 1.246-4.646 0-1.782-.423-3.226-1.269-4.332-.845-1.106-1.969-1.659-3.37-1.659-1.371 0-2.477.546-3.318 1.637-.841 1.09-1.261 2.652-1.261 4.684 0 1.802.418 3.248 1.254 4.339z" fill="#53C7CD"/><path d="M108.817 30.695c.573 0 1.008-.155 1.305-.467.296-.312.445-.699.445-1.162 0-.482-.149-.884-.445-1.206-.297-.322-.732-.483-1.305-.483s-1.003.161-1.289.483c-.287.322-.43.724-.43 1.207 0 .462.143.85.43 1.16.286.313.716.468 1.289.468z" fill="#fff"/><path d="M108.817 30.695c.573 0 1.008-.155 1.305-.467.296-.312.445-.699.445-1.162 0-.482-.149-.884-.445-1.206-.297-.322-.732-.483-1.305-.483s-1.003.161-1.289.483c-.287.322-.43.724-.43 1.207 0 .462.143.85.43 1.16.286.313.716.468 1.289.468z" fill="#ABD856"/></svg>